<?xml version="1.0" standalone="no"?>
<!DOCTYPE svg PUBLIC "-//W3C//DTD SVG 20010904//EN"
 "http://www.w3.org/TR/2001/REC-SVG-20010904/DTD/svg10.dtd">
<svg version="1.0" xmlns="http://www.w3.org/2000/svg"
 width="300.000000pt" height="300.000000pt" viewBox="0 0 300.000000 300.000000"
 preserveAspectRatio="xMidYMid meet">
<metadata>
Created by potrace 1.10, written by Peter Selinger 2001-2011
</metadata>
<g transform="translate(0.000000,300.000000) scale(0.100000,-0.100000)"
fill="#be1616" stroke="none">
<path d="M833 2167 c-498 -497 -643 -648 -643 -667 0 -19 144 -169 637 -663
351 -351 648 -640 660 -643 29 -8 71 18 108 67 17 21 37 41 45 45 8 3 44 39
80 79 36 40 72 76 80 80 8 4 44 40 80 80 36 40 72 76 80 80 8 4 44 40 80 80
36 40 72 76 80 80 8 4 44 40 80 80 36 40 72 76 80 80 8 4 44 40 80 80 36 40
72 76 80 80 8 4 44 40 80 80 36 40 72 76 80 80 33 16 210 215 210 237 0 16
-173 196 -627 653 -346 346 -639 636 -652 643 -14 6 -32 12 -40 12 -8 0 -304
-289 -658 -643z m1317 -22 l645 -645 -648 -648 -647 -647 -647 647 -648 648
645 645 c355 355 647 645 650 645 3 0 295 -290 650 -645z"/>
<path d="M875 2120 l-620 -620 623 -623 622 -622 622 622 623 623 -620 620
c-341 341 -622 620 -625 620 -3 0 -284 -279 -625 -620z m656 524 c17 -21 0
-49 -31 -49 -31 0 -48 28 -31 49 8 9 21 16 31 16 10 0 23 -7 31 -16z m-76 -54
c16 -16 36 -30 46 -30 9 0 29 14 42 30 14 17 29 30 34 30 15 0 1113 -1105
1113 -1120 0 -15 -1098 -1120 -1113 -1120 -5 0 -20 14 -34 30 -32 38 -49 38
-90 -2 l-34 -32 -554 554 c-305 305 -555 562 -555 570 0 13 1097 1120 1111
1120 3 0 18 -13 34 -30z m76 -2196 c17 -21 0 -49 -31 -49 -31 0 -48 28 -31 49
8 9 21 16 31 16 10 0 23 -7 31 -16z"/>
<path d="M789 1828 c-18 -7 -20 -16 -17 -85 l3 -78 70 -2 c39 -2 84 -5 102 -9
17 -3 39 -2 48 3 11 6 31 6 55 -1 28 -7 46 -7 66 2 23 11 26 17 20 43 -3 17
-1 40 5 52 9 17 8 23 -7 34 -21 16 -68 17 -95 3 -14 -8 -18 -17 -13 -34 3 -13
1 -27 -6 -31 -16 -10 -19 -4 -25 46 -7 56 -29 75 -63 53 -19 -13 -26 -13 -39
-2 -17 14 -73 17 -104 6z m36 -55 l8 -48 14 48 c8 26 18 47 24 47 5 0 9 -34 9
-75 0 -78 -19 -109 -21 -32 -1 43 -2 43 -15 -8 l-7 -30 -13 40 -12 40 -1 -42
c-2 -77 -21 -46 -21 32 0 57 3 75 14 75 9 0 17 -17 21 -47z m145 -33 c0 -29 4
-40 15 -40 8 0 15 -6 15 -13 0 -8 -14 -12 -40 -12 -26 0 -40 4 -40 12 0 7 7
13 15 13 10 0 15 10 15 30 0 20 -5 30 -15 30 -8 0 -15 5 -15 10 0 6 11 10 25
10 23 0 25 -4 25 -40z m160 33 c0 -4 -14 -22 -32 -40 l-32 -33 33 0 c21 0 31
-4 29 -12 -5 -14 -88 -18 -88 -4 0 5 11 24 26 43 l25 33 -25 0 c-15 0 -26 5
-26 10 0 6 20 10 45 10 25 0 45 -3 45 -7z"/>
<path d="M1304 1826 c-12 -8 -29 -41 -39 -72 -23 -74 -15 -89 51 -90 28 -1 67
-4 87 -8 52 -10 73 -1 86 35 6 18 16 29 23 26 7 -2 12 -9 11 -14 -1 -6 8 -20
21 -32 19 -18 27 -20 51 -11 25 9 27 14 20 46 -4 22 -2 41 5 49 9 11 6 21 -11
44 -29 40 -45 45 -69 21 -14 -14 -33 -19 -69 -18 -27 0 -58 -3 -68 -6 -13 -4
-27 2 -43 19 -27 29 -29 30 -56 11z m56 -77 c12 -39 19 -73 16 -76 -8 -8 -26
7 -26 23 0 8 -10 14 -25 14 -15 0 -25 -6 -25 -14 0 -16 -18 -31 -27 -23 -9 9
41 147 53 147 7 0 22 -32 34 -71z m215 51 c-5 -16 -2 -20 14 -20 12 0 21 -4
21 -10 0 -5 -9 -10 -20 -10 -16 0 -20 -7 -20 -30 0 -23 4 -30 20 -30 11 0 20
-4 20 -9 0 -16 -19 -23 -40 -16 -15 5 -20 15 -20 45 0 21 -6 41 -12 43 -9 4
-10 8 -2 14 6 4 13 16 17 26 9 24 30 22 22 -3z m-75 -47 c0 -15 -5 -23 -12
-20 -7 2 -12 10 -10 16 3 15 -11 14 -26 -1 -17 -17 -15 -48 3 -48 8 0 15 -6
15 -13 0 -10 -11 -13 -35 -12 -41 3 -55 12 -31 21 21 8 22 64 1 64 -8 0 -15 4
-15 9 0 5 25 10 55 10 52 0 55 -2 55 -26z"/>
<path d="M1755 1824 c-15 -15 -14 -18 2 -43 9 -14 20 -44 23 -65 7 -53 34 -70
61 -38 l19 24 31 -26 c35 -30 56 -32 87 -11 19 14 24 14 48 -1 21 -14 32 -15
57 -7 18 6 57 9 87 8 30 -1 61 2 68 8 6 5 12 29 12 52 0 38 -5 47 -37 74 -40
33 -80 40 -89 16 -4 -10 -20 -15 -46 -15 -22 0 -49 -5 -60 -11 -14 -8 -23 -8
-31 0 -6 6 -28 11 -49 11 -25 0 -45 7 -58 20 -25 25 -101 28 -125 4z m115 -19
c0 -8 -9 -15 -20 -15 -18 0 -20 -7 -20 -60 0 -47 -3 -60 -15 -60 -12 0 -15 13
-15 60 0 53 -2 60 -20 60 -11 0 -20 7 -20 15 0 12 13 15 55 15 42 0 55 -3 55
-15z m293 -9 c-4 -21 -2 -23 22 -18 34 6 45 -10 45 -66 0 -58 -24 -52 -28 7
-3 33 -7 42 -20 39 -12 -2 -17 -14 -18 -43 0 -21 -6 -41 -12 -43 -9 -3 -12 18
-12 72 0 57 3 76 14 76 9 0 12 -8 9 -24z m-183 -35 c17 -32 12 -41 -25 -41
-19 0 -35 -4 -35 -10 0 -5 14 -10 32 -10 31 0 31 -1 15 -17 -16 -16 -20 -16
-45 -3 -30 17 -39 48 -22 79 14 28 65 28 80 2z m121 3 c11 -14 9 -15 -22 -12
-31 3 -34 0 -34 -22 0 -22 4 -25 32 -23 25 2 31 0 27 -12 -14 -34 -83 -24 -85
13 -3 47 12 72 46 72 12 0 28 -7 36 -16z"/>
<path d="M1177 1823 c-11 -11 -8 -58 5 -71 19 -19 38 -14 49 14 13 36 3 64
-25 64 -12 0 -26 -3 -29 -7z m43 -33 c0 -20 -5 -30 -15 -30 -10 0 -15 10 -15
30 0 20 5 30 15 30 10 0 15 -10 15 -30z"/>
<path d="M781 1544 c-24 -31 -15 -60 22 -69 12 -3 334 -4 715 -3 661 3 694 4
707 21 15 21 10 46 -13 65 -12 9 -170 12 -713 12 l-698 0 -20 -26z m1435 -24
c0 -20 -7 -20 -716 -20 -709 0 -716 0 -716 20 0 20 7 20 716 20 709 0 716 0
716 -20z"/>
<path d="M1400 1357 c-58 -31 -76 -55 -90 -113 -19 -78 -3 -155 42 -201 40
-42 72 -51 97 -29 17 16 19 16 24 -4 7 -27 47 -27 54 0 6 24 12 25 28 4 17
-23 55 -12 94 28 96 98 49 294 -79 328 -57 15 -129 10 -170 -13z m173 -11 c91
-39 133 -153 91 -242 -22 -45 -84 -98 -99 -83 -7 8 -6 13 5 17 8 3 29 20 47
39 59 62 56 152 -6 214 -108 108 -288 19 -268 -133 6 -43 47 -103 77 -113 11
-3 20 -13 20 -21 0 -21 -11 -17 -51 16 -133 109 -62 318 109 320 23 0 57 -6
75 -14z m3 -90 c38 -38 44 -77 19 -126 -18 -36 -55 -59 -55 -35 0 8 4 15 10
15 5 0 17 14 25 31 21 39 12 82 -22 109 -74 58 -172 -26 -128 -109 8 -17 20
-31 25 -31 6 0 10 -7 10 -15 0 -26 -39 1 -57 39 -35 74 17 156 99 156 32 0 47
-7 74 -34z m-46 -51 c12 -15 5 -55 -11 -55 -5 0 -9 -34 -9 -75 0 -43 -4 -75
-10 -75 -6 0 -10 32 -10 75 0 41 -4 75 -9 75 -16 0 -23 40 -11 55 7 8 20 15
30 15 10 0 23 -7 30 -15z"/>
<path d="M1484 1189 c-10 -17 13 -36 27 -22 12 12 4 33 -11 33 -5 0 -12 -5
-16 -11z"/>
</g>
</svg>
